<?xml version="1.0" encoding="utf-8"?>
<!-- Generator: Adobe Illustrator 22.1.0, SVG Export Plug-In . SVG Version: 6.00 Build 0)  -->
<svg version="1.1" id="Layer_1" xmlns="http://www.w3.org/2000/svg" xmlns:xlink="http://www.w3.org/1999/xlink" x="0px" y="0px"
	 viewBox="0 0 324.7 61.2" style="enable-background:new 0 0 324.7 61.2;" xml:space="preserve">
<style type="text/css">
	.st0{fill:#FFFFFF;}
	.st1{fill:#D8E5EA;}
	.st2{fill-rule:evenodd;clip-rule:evenodd;fill:url(#SVGID_1_);}
	.st3{fill-rule:evenodd;clip-rule:evenodd;fill:url(#SVGID_2_);}
	.st4{fill-rule:evenodd;clip-rule:evenodd;fill:url(#SVGID_3_);}
</style>
<path class="st0" d="M76.9,34c0-5.3,1.5-9.3,4.6-11.9c3-2.7,6.6-4,10.7-4c4.1,0,7.6,1.3,10.6,4c3,2.7,4.5,6.6,4.5,12
	c0,5.3-1.5,9.3-4.5,11.9c-3,2.7-6.6,4-10.6,4c-4.1,0-7.6-1.3-10.7-4C78.4,43.3,76.9,39.3,76.9,34L76.9,34L76.9,34z M83.5,34
	c0,3.7,0.7,6.3,2,8c1.4,1.7,2.9,2.8,4.5,3.2c0.4,0.1,0.7,0.2,1.1,0.2c0.3,0,0.7,0.1,1,0.1c0.4,0,0.7,0,1.1-0.1
	c0.4,0,0.7-0.1,1.1-0.2c1.6-0.4,3.1-1.5,4.4-3.2c1.3-1.7,2-4.4,2-7.9c0-3.6-0.7-6.2-2-7.9c-1.3-1.7-2.8-2.8-4.4-3.2
	c-0.4-0.1-0.8-0.2-1.1-0.2c-0.4,0-0.7-0.1-1.1-0.1c-0.4,0-0.7,0-1,0.1c-0.3,0-0.7,0.1-1.1,0.2c-1.6,0.4-3.1,1.5-4.5,3.2
	C84.2,27.8,83.5,30.4,83.5,34L83.5,34L83.5,34z"/>
<polygon class="st0" points="110.6,18.4 118.8,18.4 129.6,38.1 131.2,42.3 131.3,42.3 131.2,36.8 131.2,18.4 137.5,18.4 137.5,49.6 
	129.3,49.6 118.5,29.2 116.9,25.7 116.8,25.7 116.9,31.2 116.9,49.6 110.6,49.6 110.6,18.4 "/>
<polygon class="st0" points="144,18.4 150.3,18.4 150.3,44.3 162.7,44.3 162.7,49.6 144,49.6 144,18.4 "/>
<polygon class="st0" points="158.8,18.4 166.1,18.4 172.5,29.4 173.5,31.5 173.7,31.5 174.7,29.4 181.2,18.4 187.9,18.4 176.6,36.9 
	176.6,49.6 170.3,49.6 170.3,36.9 158.8,18.4 "/>
<path class="st1" d="M187.1,34c0-5.3,1.5-9.3,4.6-11.9c3-2.7,6.6-4,10.7-4c4.1,0,7.6,1.3,10.6,4c3,2.7,4.5,6.6,4.5,12
	c0,5.3-1.5,9.3-4.5,11.9c-3,2.7-6.6,4-10.6,4c-4.1,0-7.6-1.3-10.7-4C188.7,43.3,187.1,39.3,187.1,34L187.1,34L187.1,34z M193.7,34
	c0,3.7,0.7,6.3,2,8c1.4,1.7,2.8,2.8,4.5,3.2c0.4,0.1,0.7,0.2,1.1,0.2c0.3,0,0.7,0.1,1,0.1c0.4,0,0.7,0,1.1-0.1
	c0.4,0,0.7-0.1,1.1-0.2c1.6-0.4,3.1-1.5,4.4-3.2c1.3-1.7,2-4.4,2-7.9c0-3.6-0.7-6.2-2-7.9c-1.3-1.7-2.8-2.8-4.4-3.2
	c-0.4-0.1-0.8-0.2-1.1-0.2c-0.4,0-0.7-0.1-1.1-0.1c-0.4,0-0.7,0-1,0.1c-0.3,0-0.7,0.1-1.1,0.2c-1.6,0.4-3.1,1.5-4.5,3.2
	C194.4,27.8,193.7,30.4,193.7,34L193.7,34L193.7,34z"/>
<polygon class="st1" points="221.9,18.4 239.3,18.4 239.3,23.7 228.2,23.7 228.2,31.2 238.8,31.2 238.8,36.5 228.2,36.5 228.2,49.6 
	221.9,49.6 221.9,18.4 "/>
<polygon class="st1" points="244,18.4 261.4,18.4 261.4,23.7 250.3,23.7 250.3,31.2 260.9,31.2 260.9,36.5 250.3,36.5 250.3,49.6 
	244,49.6 244,18.4 "/>
<polygon class="st1" points="265.1,49.6 265.1,18.4 271.4,18.4 271.4,49.6 265.1,49.6 "/>
<path class="st1" d="M301,19.1v5.4c-1.1-0.4-2.2-0.7-3.4-0.9c-1.2-0.2-2.5-0.3-3.9-0.3c-3.3,0-5.8,1-7.6,3.1c-1.8,2-2.7,4.6-2.7,7.7
	c0,3,0.8,5.5,2.5,7.5c1.7,2,4.1,3.1,7.2,3.1c1.1,0,2.2-0.1,3.5-0.2c1.3-0.2,2.6-0.5,4-1.1l0.4,5.3c-0.2,0.1-0.5,0.2-0.8,0.3
	c-0.4,0.1-0.8,0.2-1.3,0.3c-0.8,0.2-1.8,0.3-3,0.5c-1.2,0.1-2.4,0.2-3.7,0.2c-0.2,0-0.4,0-0.5,0c-0.2,0-0.4,0-0.5,0
	c-3.6-0.2-6.9-1.6-9.9-4c-3-2.5-4.5-6.4-4.5-11.6c0-5.1,1.5-9.1,4.4-11.9c2.9-2.8,6.9-4.2,11.8-4.2c1.3,0,2.5,0,3.5,0.1
	c1.1,0.1,2.1,0.3,3.2,0.5c0.2,0.1,0.5,0.1,0.7,0.2C300.5,19,300.7,19.1,301,19.1L301,19.1L301,19.1z"/>
<polygon class="st1" points="306,18.4 324.7,18.4 324.7,23.3 312.4,23.3 312.4,31.1 323.5,31.1 323.5,36 312.4,36 312.4,44.7 
	324.7,44.7 324.7,49.6 306,49.6 306,18.4 "/>
<linearGradient id="SVGID_1_" gradientUnits="userSpaceOnUse" x1="32.7767" y1="72.3433" x2="32.7767" y2="26.3421">
	<stop  offset="0" style="stop-color:#FCC2B1"/>
	<stop  offset="0.8848" style="stop-color:#D9420B"/>
</linearGradient>
<path class="st2" d="M28.7,60.4l-27-12.6c-2.3-1.1-2.3-2.8,0-3.8l9.4-4.4l17.5,8.2c2.3,1.1,6,1.1,8.2,0l17.5-8.2l9.4,4.4
	c2.3,1.1,2.3,2.8,0,3.8l-27,12.6C34.6,61.4,30.9,61.4,28.7,60.4L28.7,60.4z"/>
<linearGradient id="SVGID_2_" gradientUnits="userSpaceOnUse" x1="32.7767" y1="52.4262" x2="32.7767" y2="22.1725">
	<stop  offset="0" style="stop-color:#DEEDC9"/>
	<stop  offset="0.6788" style="stop-color:#8BB825"/>
</linearGradient>
<path class="st3" d="M28.7,44.9l-27-12.6c-2.3-1.1-2.3-2.8,0-3.8l9.2-4.3l17.8,8.3c2.3,1.1,6,1.1,8.2,0l17.8-8.3l9.2,4.3
	c2.3,1.1,2.3,2.8,0,3.8l-27,12.6C34.6,46,30.9,46,28.7,44.9L28.7,44.9z"/>
<linearGradient id="SVGID_3_" gradientUnits="userSpaceOnUse" x1="32.7767" y1="40.1758" x2="32.7767" y2="-0.9929">
	<stop  offset="0" style="stop-color:#C2EBFA"/>
	<stop  offset="1" style="stop-color:#26A8DE"/>
</linearGradient>
<path class="st4" d="M28.7,29.8l-27-12.6c-2.3-1.1-2.3-2.8,0-3.8l27-12.6c2.3-1.1,6-1.1,8.2,0l27,12.6c2.3,1.1,2.3,2.8,0,3.8
	l-27,12.6C34.6,30.8,30.9,30.8,28.7,29.8L28.7,29.8z"/>
</svg>
