<?xml version="1.0" encoding="utf-8"?>
<!-- Generator: Adobe Illustrator 22.1.0, SVG Export Plug-In . SVG Version: 6.00 Build 0)  -->
<svg version="1.1" id="Layer_1" xmlns="http://www.w3.org/2000/svg" xmlns:xlink="http://www.w3.org/1999/xlink" x="0px" y="0px"
	 viewBox="0 0 247.8 118.7" style="enable-background:new 0 0 247.8 118.7;" xml:space="preserve">
<style type="text/css">
	.st0{fill-rule:evenodd;clip-rule:evenodd;fill:url(#SVGID_1_);}
	.st1{fill-rule:evenodd;clip-rule:evenodd;fill:url(#SVGID_2_);}
	.st2{fill-rule:evenodd;clip-rule:evenodd;fill:url(#SVGID_3_);}
	.st3{fill:#FFFFFF;}
	.st4{fill:#D8E5EA;}
</style>
<g>
	<linearGradient id="SVGID_1_" gradientUnits="userSpaceOnUse" x1="123.8879" y1="79.4025" x2="123.8879" y2="28.9125">
		<stop  offset="0" style="stop-color:#FCC2B1"/>
		<stop  offset="0.8848" style="stop-color:#D9420B"/>
	</linearGradient>
	<path class="st0" d="M119.4,66.3L89.8,52.5c-2.5-1.2-2.5-3.1,0-4.2l10.4-4.8l19.2,9c2.5,1.2,6.6,1.2,9,0l19.2-9l10.4,4.8
		c2.5,1.2,2.5,3.1,0,4.2l-29.6,13.8C125.9,67.4,121.9,67.4,119.4,66.3L119.4,66.3z"/>
	<linearGradient id="SVGID_2_" gradientUnits="userSpaceOnUse" x1="123.8879" y1="57.542" x2="123.8879" y2="24.3361">
		<stop  offset="0" style="stop-color:#DEEDC9"/>
		<stop  offset="0.6788" style="stop-color:#8BB825"/>
	</linearGradient>
	<path class="st1" d="M119.4,49.3L89.8,35.5c-2.5-1.2-2.5-3.1,0-4.2l10.1-4.7l19.5,9.1c2.5,1.2,6.6,1.2,9,0l19.5-9.1l10.1,4.7
		c2.5,1.2,2.5,3.1,0,4.2l-29.6,13.8C125.9,50.5,121.9,50.5,119.4,49.3L119.4,49.3z"/>
	<linearGradient id="SVGID_3_" gradientUnits="userSpaceOnUse" x1="123.8879" y1="44.0962" x2="123.8879" y2="-1.0898">
		<stop  offset="0" style="stop-color:#C2EBFA"/>
		<stop  offset="1" style="stop-color:#26A8DE"/>
	</linearGradient>
	<path class="st2" d="M119.4,32.7L89.8,18.9c-2.5-1.2-2.5-3.1,0-4.2l29.6-13.8c2.5-1.2,6.6-1.2,9,0L158,14.7c2.5,1.2,2.5,3.1,0,4.2
		l-29.6,13.8C125.9,33.8,121.9,33.8,119.4,32.7L119.4,32.7z"/>
</g>
<g>
	<path class="st3" d="M0,102.7c0-5.3,1.5-9.3,4.6-11.9c3-2.7,6.6-4,10.7-4c4.1,0,7.6,1.3,10.6,4c3,2.7,4.5,6.6,4.5,12
		c0,5.3-1.5,9.3-4.5,11.9c-3,2.7-6.6,4-10.6,4c-4.1,0-7.6-1.3-10.7-4C1.5,112,0,108.1,0,102.7L0,102.7L0,102.7z M6.6,102.7
		c0,3.7,0.7,6.3,2,8c1.4,1.7,2.9,2.8,4.5,3.2c0.4,0.1,0.7,0.2,1.1,0.2c0.3,0,0.7,0.1,1,0.1c0.4,0,0.7,0,1.1-0.1
		c0.4,0,0.7-0.1,1.1-0.2c1.6-0.4,3.1-1.5,4.4-3.2c1.3-1.7,2-4.4,2-7.9c0-3.6-0.7-6.2-2-7.9c-1.3-1.7-2.8-2.8-4.4-3.2
		c-0.4-0.1-0.8-0.2-1.1-0.2c-0.4,0-0.7-0.1-1.1-0.1c-0.4,0-0.7,0-1,0.1c-0.3,0-0.7,0.1-1.1,0.2c-1.6,0.4-3.1,1.5-4.5,3.2
		C7.3,96.5,6.6,99.1,6.6,102.7L6.6,102.7L6.6,102.7z"/>
	<polygon class="st3" points="33.7,87.1 41.9,87.1 52.7,106.8 54.3,111 54.5,111 54.3,105.5 54.3,87.1 60.7,87.1 60.7,118.3 
		52.5,118.3 41.6,97.9 40,94.4 39.9,94.4 40,100 40,118.3 33.7,118.3 33.7,87.1 	"/>
	<polygon class="st3" points="67.1,87.1 73.4,87.1 73.4,113.1 85.8,113.1 85.8,118.3 67.1,118.3 67.1,87.1 	"/>
	<polygon class="st3" points="82,87.1 89.3,87.1 95.7,98.1 96.6,100.2 96.8,100.2 97.9,98.1 104.3,87.1 111,87.1 99.8,105.7 
		99.8,118.3 93.4,118.3 93.4,105.6 82,87.1 	"/>
	<path class="st4" d="M110.3,102.7c0-5.3,1.5-9.3,4.6-11.9c3-2.7,6.6-4,10.7-4c4.1,0,7.6,1.3,10.6,4c3,2.7,4.5,6.6,4.5,12
		c0,5.3-1.5,9.3-4.5,11.9c-3,2.7-6.6,4-10.6,4c-4.1,0-7.6-1.3-10.7-4C111.8,112,110.3,108.1,110.3,102.7L110.3,102.7L110.3,102.7z
		 M116.9,102.7c0,3.7,0.7,6.3,2,8c1.4,1.7,2.8,2.8,4.5,3.2c0.4,0.1,0.7,0.2,1.1,0.2c0.3,0,0.7,0.1,1,0.1c0.4,0,0.7,0,1.1-0.1
		c0.4,0,0.7-0.1,1.1-0.2c1.6-0.4,3.1-1.5,4.4-3.2c1.3-1.7,2-4.4,2-7.9c0-3.6-0.7-6.2-2-7.9c-1.3-1.7-2.8-2.8-4.4-3.2
		c-0.4-0.1-0.8-0.2-1.1-0.2c-0.4,0-0.7-0.1-1.1-0.1c-0.4,0-0.7,0-1,0.1c-0.3,0-0.7,0.1-1.1,0.2c-1.6,0.4-3.1,1.5-4.5,3.2
		C117.5,96.5,116.9,99.1,116.9,102.7L116.9,102.7L116.9,102.7z"/>
	<polygon class="st4" points="145,87.1 162.4,87.1 162.4,92.4 151.3,92.4 151.3,100 161.9,100 161.9,105.2 151.3,105.2 151.3,118.3 
		145,118.3 145,87.1 	"/>
	<polygon class="st4" points="167.1,87.1 184.5,87.1 184.5,92.4 173.4,92.4 173.4,100 184,100 184,105.2 173.4,105.2 173.4,118.3 
		167.1,118.3 167.1,87.1 	"/>
	<polygon class="st4" points="188.2,118.3 188.2,87.1 194.5,87.1 194.5,118.3 188.2,118.3 	"/>
	<path class="st4" d="M224.1,87.9v5.4c-1.1-0.4-2.2-0.7-3.4-0.9s-2.5-0.3-3.9-0.3c-3.3,0-5.8,1-7.6,3.1c-1.8,2-2.7,4.6-2.7,7.7
		c0,3,0.8,5.5,2.5,7.5c1.7,2,4.1,3.1,7.2,3.1c1.1,0,2.2-0.1,3.5-0.2c1.3-0.2,2.6-0.5,4-1.1l0.4,5.3c-0.2,0.1-0.5,0.2-0.8,0.3
		c-0.4,0.1-0.8,0.2-1.3,0.3c-0.8,0.2-1.8,0.3-3,0.5c-1.2,0.1-2.4,0.2-3.7,0.2c-0.2,0-0.4,0-0.5,0c-0.2,0-0.4,0-0.5,0
		c-3.6-0.2-6.9-1.6-9.9-4c-3-2.5-4.5-6.4-4.5-11.6c0-5.1,1.5-9.1,4.4-11.9c2.9-2.8,6.9-4.2,11.8-4.2c1.3,0,2.5,0,3.5,0.1
		c1.1,0.1,2.1,0.3,3.2,0.5c0.2,0.1,0.5,0.1,0.7,0.2C223.6,87.7,223.8,87.8,224.1,87.9L224.1,87.9L224.1,87.9z"/>
	<polygon class="st4" points="229.2,87.1 247.8,87.1 247.8,92 235.5,92 235.5,99.8 246.7,99.8 246.7,104.7 235.5,104.7 235.5,113.4 
		247.8,113.4 247.8,118.3 229.2,118.3 229.2,87.1 	"/>
</g>
</svg>
