<?xml version="1.0" encoding="utf-8"?>
<!-- Generator: Adobe Illustrator 22.1.0, SVG Export Plug-In . SVG Version: 6.00 Build 0)  -->
<svg version="1.1" id="Layer_1" xmlns="http://www.w3.org/2000/svg" xmlns:xlink="http://www.w3.org/1999/xlink" x="0px" y="0px"
	 viewBox="0 0 100 100" style="enable-background:new 0 0 100 100;" xml:space="preserve">
<style type="text/css">
	.st0{display:none;fill-rule:evenodd;clip-rule:evenodd;fill:#446995;}
	.st1{opacity:0.4;fill-rule:evenodd;clip-rule:evenodd;fill:#FFFFFF;}
	.st2{opacity:0.7;fill-rule:evenodd;clip-rule:evenodd;fill:#FFFFFF;}
	.st3{fill-rule:evenodd;clip-rule:evenodd;fill:#FFFFFF;}
	.st4{display:none;}
	.st5{display:inline;fill-rule:evenodd;clip-rule:evenodd;fill:#FFFFFF;}
</style>
<rect class="st0" width="100" height="100"/>
<path class="st1" d="M45.9,79.8l-27-12.6c-2.3-1.1-2.3-2.8,0-3.8l9.5-4.4l17.5,8.2c2.3,1.1,6,1.1,8.2,0L71.6,59l9.4,4.4
	c2.3,1.1,2.3,2.8,0,3.8l-27,12.6C51.9,80.9,48.1,80.9,45.9,79.8L45.9,79.8z"/>
<path class="st2" d="M45.9,64.4l-27-12.6c-2.3-1.1-2.3-2.8,0-3.8l9.2-4.3L45.9,52c2.3,1.1,6,1.1,8.2,0l17.8-8.3l9.2,4.3
	c2.3,1.1,2.3,2.8,0,3.8l-27,12.6C51.9,65.4,48.1,65.4,45.9,64.4L45.9,64.4z"/>
<path class="st3" d="M45.9,49.2l-27-12.6c-2.3-1.1-2.3-2.8,0-3.8l27-12.6c2.3-1.1,6-1.1,8.2,0l27,12.6c2.3,1.1,2.3,2.8,0,3.8
	l-27,12.6C51.9,50.2,48.1,50.2,45.9,49.2L45.9,49.2z"/>
<g class="st4">
	<path class="st5" d="M0,50v50h50C22.4,100,0,77.6,0,50z"/>
	<path class="st5" d="M50,0H0v50C0,22.4,22.4,0,50,0z"/>
	<path class="st5" d="M50,0c27.6,0,50,22.4,50,50V0H50z"/>
	<path class="st5" d="M50,100h50V50C100,77.6,77.6,100,50,100z"/>
</g>
</svg>
